<svg width="512" height="512" viewBox="0 0 512 512" fill="none" xmlns="http://www.w3.org/2000/svg">
  <rect width="512" height="512" rx="96" fill="#0d0b09"/>
  <path d="M256 48C315 83 369 91 424 96V251C424 352 354 428 256 464C158 428 88 352 88 251V96C143 91 197 83 256 48Z" fill="#17110e" stroke="#b38a3a" stroke-width="18"/>
  <path d="M146 137C184 168 207 204 215 254C169 245 139 207 146 137Z" fill="#245b35" stroke="#d7c59b" stroke-width="8"/>
  <path d="M366 137C328 168 305 204 297 254C343 245 373 207 366 137Z" fill="#245b35" stroke="#d7c59b" stroke-width="8"/>
  <circle cx="256" cy="252" r="80" fill="#23150f" stroke="#b38a3a" stroke-width="12"/>
  <path d="M220 260L246 286L296 226" stroke="#f1e7d0" stroke-width="18" stroke-linecap="round" stroke-linejoin="round"/>
  <path d="M200 342H312" stroke="#b38a3a" stroke-width="16" stroke-linecap="round"/>
  <path d="M176 382H336" stroke="#d7c59b" stroke-width="10" stroke-linecap="round"/>
  <text x="256" y="120" text-anchor="middle" font-family="Georgia, serif" font-size="34" font-weight="700" fill="#f1e7d0">B</text>
</svg>
